<?xml version="1.0" encoding="UTF-8"?>
<!-- Generator: Adobe Illustrator 28.0.0, SVG Export Plug-In . SVG Version: 6.00 Build 0) -->
<svg version="1.1" id="lo" xmlns="http://www.w3.org/2000/svg" xmlns:xlink="http://www.w3.org/1999/xlink" x="0px" y="0px" viewBox="0 0 204.4 30.8" style="enable-background:new 0 0 204.4 30.8;" xml:space="preserve"><g id="DP_white"><path id="logo" d="M8.1,0h2.8v22.4H8.1V0z M16.2,8.4H19v22.4h-2.8V8.4z M24.2,8.4H27v14h-2.8V8.4z M0,8.4h2.8v14H0V8.4z"/><g id="l"><path d="M40.6,21.3V9.7h3.8c1.9,0,3.4,0.5,4.6,1.6c1.2,1.1,1.8,2.5,1.8,4.2s-0.6,3.1-1.8,4.2c-1.2,1.1-2.7,1.6-4.6,1.6H40.6z M41.8,20.2h2.4c1.6,0,2.9-0.4,3.8-1.3s1.4-2,1.4-3.4s-0.5-2.6-1.4-3.4s-2.2-1.3-3.8-1.3h-2.4V20.2L41.8,20.2z"/><path d="M54.9,21.3l5.2-11.7h1.2l5.2,11.7h-1.3l-1.5-3.2h-6.1l-1.4,3.2L54.9,21.3L54.9,21.3z M58,17h5.3l-2.6-5.9L58,17L58,17z"/><path d="M71.9,21.3V9.7h5.2c2.3,0,3.7,1.2,3.7,3.2c0,1.6-1,2.8-2.7,3.1l3.8,5.4h-1.4l-3.7-5.2h-3.6v5.2L71.9,21.3L71.9,21.3z M73.1,15H77c1.6,0,2.5-0.8,2.5-2.1s-0.9-2.1-2.5-2.1h-3.9V15L73.1,15z"/><path d="M88.7,9.7v5.1l5.4-5.1h1.6L90,15l6.6,6.3h-1.7l-6.2-5.9v5.9h-1.2V9.7C87.5,9.7,88.7,9.7,88.7,9.7z"/><path d="M109.5,21.3V9.7h4.9c2.3,0,3.7,1.3,3.7,3.2s-1.4,3.3-3.7,3.3h-3.7v5.1L109.5,21.3L109.5,21.3z M110.7,15.1h3.6 c1.7,0,2.6-0.8,2.6-2.1s-0.9-2.2-2.6-2.2h-3.6V15.1L110.7,15.1z"/><path d="M123.9,21.3V9.7h5.2c2.3,0,3.7,1.2,3.7,3.2c0,1.6-1,2.8-2.7,3.1l3.8,5.4h-1.4l-3.7-5.2h-3.6v5.2L123.9,21.3L123.9,21.3z M125.1,15h3.9c1.6,0,2.5-0.8,2.5-2.1s-0.9-2.1-2.5-2.1h-3.9V15L125.1,15z"/><path d="M144.5,9.5c1.7,0,3.1,0.6,4.2,1.7s1.7,2.6,1.7,4.3s-0.6,3.2-1.7,4.3s-2.5,1.7-4.2,1.7s-3.1-0.6-4.2-1.7s-1.7-2.6-1.7-4.3 s0.6-3.1,1.7-4.3S142.8,9.5,144.5,9.5z M144.5,20.3c1.3,0,2.4-0.5,3.3-1.4s1.3-2.1,1.3-3.5s-0.4-2.5-1.3-3.5 c-0.9-0.9-2-1.4-3.3-1.4s-2.4,0.5-3.3,1.4c-0.9,0.9-1.3,2.1-1.3,3.5s0.4,2.5,1.3,3.5C142.1,19.9,143.2,20.3,144.5,20.3z"/><path d="M154.8,20.8v-1.3c0.6,0.6,1.5,0.9,2.4,0.9c1.8,0,2.7-0.9,2.7-2.8V9.7h1.2v8.1c0,2.5-1.4,3.7-3.7,3.7 C156.3,21.5,155.4,21.3,154.8,20.8L154.8,20.8z"/><path d="M167.6,21.3V9.7h8v1.1h-6.8v3.7h5.5v1.1h-5.5v4.6h7v1.1L167.6,21.3L167.6,21.3z"/><path d="M182.5,19.8c-1.1-1.1-1.7-2.6-1.7-4.3s0.6-3.2,1.7-4.3c1.1-1.1,2.6-1.7,4.3-1.7c1.3,0,2.4,0.3,3.3,0.9v1.3 c-1-0.6-2.1-1-3.2-1c-1.4,0-2.5,0.5-3.4,1.4c-0.9,0.9-1.4,2.1-1.4,3.5s0.4,2.6,1.4,3.5c0.9,0.9,2.1,1.4,3.4,1.4s2.5-0.4,3.5-1.2 v1.3c-0.9,0.7-2.1,1-3.5,1C185.1,21.5,183.6,20.9,182.5,19.8z"/><path d="M199.1,21.3V10.8h-4V9.7h9.3v1.1h-4.1v10.5H199.1L199.1,21.3z"/></g></g></svg>