<?xml version="1.0" encoding="UTF-8"?>
<svg id="Layer_2" data-name="Layer 2" xmlns="http://www.w3.org/2000/svg" viewBox="0 0 1028.29 337.91">
  <defs>
    <style>
      .cls-1 {
        fill: #fff;
      }
    </style>
  </defs>
  <g id="Layer_1-2" data-name="Layer 1">
    <polygon class="cls-1" points="773.2 337.47 773.2 291.18 726.49 337.89 521 337.89 472.75 289.63 424.49 337.89 0 337.89 0 148.8 115.6 148.8 115.6 0 424.49 0 438.4 13.91 438.4 0 1028.29 0 1028.29 134.09 990.43 171.95 1028.29 209.81 1028.29 337.91 773.2 337.47"/>
    <path d="M449.74,11.34v29.95l-29.95-29.95H126.94V160.14H11.34v166.42H419.79c17.65-17.65,35.3-35.3,52.96-52.96,17.65,17.65,35.3,35.3,52.96,52.96h196.09l62.75-62.75v62.35l232.42,.4v-112.05l-42.56-42.56,42.56-42.56V11.34H449.74Z"/>
    <g id="JBWK_Napis" data-name="JBWK Napis">
      <path class="cls-1" d="M801.55,309.55V28.35h82.8v110.8l33.2-33.2V28.35h82.4V122.35l-49.6,49.6,49.6,49.6v88h-82.8v-71.6l-33.2-33.2v104.4h-82.4v.4Z"/>
      <path class="cls-1" d="M532.75,309.55l-66-66V28.35h82.8V210.35l16.4,16.4,16.4-16.4V28.35h82.8V210.75l16.4,16,16.4-16.4V28.35h82.8V243.55l-66,66h-66l-24.8-24.8-24.8,24.8s-66.4,0-66.4,0Z"/>
      <path class="cls-1" d="M247.55,309.55V28.35h165.2l33.2,33.2v82.4l-33.2,33.2,33.2,33.2v66l-33.2,33.2H247.55Zm115.6-165.6v-33.2h-33.2v33.2h33.2Zm0,82.8v-33.2h-33.2v33.2h33.2Z"/>
      <path class="cls-1" d="M28.35,309.55V177.15H111.15v49.6h32.8V28.35h82.8V309.55H28.35Z"/>
    </g>
  </g>
</svg>