<svg width="185" height="14" viewBox="0 0 185 14" fill="none" xmlns="http://www.w3.org/2000/svg">
<path d="M0 13.7483V0.249861H4.30302C5.24208 0.207126 6.18033 0.350308 7.06389 0.671179C7.94744 0.99205 8.75889 1.48429 9.45163 2.11962C10.7176 3.42843 11.4253 5.1779 11.4253 6.99863C11.4253 8.81936 10.7176 10.5688 9.45163 11.8776C8.75889 12.513 7.94744 13.0052 7.06389 13.3261C6.18033 13.6469 5.24208 13.7901 4.30302 13.7474L0 13.7483ZM1.391 12.457H4.13372C5.70656 12.542 7.25046 12.0098 8.43674 10.9737C9.45102 9.89966 10.0161 8.47842 10.0161 7.00124C10.0161 5.52407 9.45102 4.10283 8.43674 3.02876C7.25046 1.9927 5.70656 1.46052 4.13372 1.54552H1.391V12.457Z" fill="white"/>
<path d="M16.1466 13.749L22.009 0.173859H23.3058L29.1865 13.749H27.7187L26.0843 10.0278H19.1904L17.596 13.749H16.1466ZM19.6598 8.77581H25.6349L22.6469 1.97033L19.6598 8.77581Z" fill="white"/>
<path d="M35.3544 13.7482V0.249758H41.2361C43.8104 0.249758 45.389 1.69636 45.389 3.91424C45.4287 4.79921 45.1304 5.66618 44.5545 6.33937C43.9786 7.01256 43.1682 7.44159 42.2876 7.53947L46.5348 13.749H44.9003L40.7666 7.67471H36.7454V13.749L35.3544 13.7482ZM36.7454 6.38167H41.1654C42.97 6.38167 44.0023 5.51441 44.0023 3.97096C44.0023 2.42751 42.9491 1.54105 41.1654 1.54105H36.7489L36.7454 6.38167Z" fill="white"/>
<path d="M54.3379 0.249758V6.1112L60.4263 0.249758H62.2667L55.803 6.42006L63.2624 13.749H61.3077L54.337 6.88422V13.749H52.946V0.249758H54.3379Z" fill="white"/>
<path d="M77.8505 13.7482V0.249758H83.3752C86.0062 0.249758 87.5849 1.75482 87.5849 3.99103C87.5849 6.2857 86.0062 7.78988 83.3752 7.78988H79.2415V13.7482H77.8505ZM79.2415 6.49771H83.2818C85.1423 6.49771 86.2139 5.59206 86.2139 4.02942C86.2139 2.42926 85.1432 1.54105 83.2818 1.54105H79.2415V6.49771Z" fill="white"/>
<path d="M94.1087 13.7482V0.249758H99.9903C102.564 0.249758 104.143 1.69636 104.143 3.91424C104.183 4.79894 103.885 5.66568 103.309 6.33883C102.734 7.01197 101.924 7.44118 101.044 7.53947L105.291 13.749H103.655L99.5209 7.67471H95.4997V13.749L94.1087 13.7482ZM95.4997 6.38167H99.9144C101.717 6.38167 102.751 5.51441 102.751 3.97096C102.751 2.42751 101.703 1.54105 99.9144 1.54105H95.498L95.4997 6.38167Z" fill="white"/>
<path d="M117.394 0.0194361C118.278 -0.000667738 119.156 0.167928 119.969 0.513977C120.783 0.860026 121.513 1.37556 122.111 2.02618C123.333 3.39886 124.009 5.17277 124.009 7.01075C124.009 8.84873 123.333 10.6226 122.111 11.9953C121.495 12.6241 120.76 13.1237 119.948 13.4647C119.137 13.8058 118.265 13.9814 117.385 13.9814C116.505 13.9814 115.634 13.8058 114.822 13.4647C114.011 13.1237 113.275 12.6241 112.659 11.9953C111.449 10.617 110.781 8.84524 110.781 7.01075C110.781 5.17626 111.449 3.40448 112.659 2.02618C113.261 1.37531 113.995 0.85981 114.811 0.513844C115.627 0.167877 116.508 -0.000647381 117.394 0.0194361ZM117.394 12.6497C118.092 12.6622 118.783 12.524 119.422 12.2445C120.061 11.965 120.632 11.5509 121.096 11.0303C122.066 9.91141 122.6 8.48044 122.6 6.99985C122.6 5.51925 122.066 4.08828 121.096 2.96935C120.624 2.45863 120.052 2.05108 119.415 1.77235C118.778 1.49361 118.09 1.34972 117.394 1.34972C116.699 1.34972 116.011 1.49361 115.374 1.77235C114.737 2.05108 114.164 2.45863 113.693 2.96935C112.724 4.08861 112.19 5.51946 112.19 6.99985C112.19 8.48024 112.724 9.91109 113.693 11.0303C114.157 11.5507 114.728 11.9648 115.367 12.2443C116.005 12.5237 116.697 12.662 117.394 12.6497Z" fill="white"/>
<path d="M128.974 13.1121V11.6289C129.728 12.3155 130.719 12.6822 131.738 12.6514C133.745 12.6514 134.763 11.5713 134.763 9.39265V0.249758H136.154V9.64045C136.154 12.5712 134.593 13.9785 131.982 13.9785C130.912 14.0261 129.855 13.7218 128.974 13.1121Z" fill="white"/>
<path d="M143.446 13.7482V0.249758H152.465V1.54105H144.836V5.86079H151.093V7.15383H144.836V12.4569H152.747V13.7482H143.446Z" fill="white"/>
<path d="M160.324 12.0128C159.091 10.6379 158.408 8.85601 158.408 7.009C158.408 5.16198 159.091 3.38004 160.324 2.00522C160.946 1.35558 161.697 0.84329 162.529 0.501286C163.361 0.159282 164.255 -0.00485457 165.154 0.0194261C166.455 -0.0184453 167.737 0.330453 168.839 1.02192V2.48772C167.757 1.7537 166.481 1.35881 165.174 1.35347C164.459 1.3387 163.75 1.47538 163.093 1.7545C162.435 2.03361 161.845 2.44884 161.359 2.97282C160.368 4.08482 159.82 5.52264 159.82 7.01249C159.82 8.50234 160.368 9.94015 161.359 11.0522C161.856 11.571 162.454 11.9812 163.118 12.2568C163.781 12.5324 164.494 12.6674 165.212 12.6532C166.635 12.6894 168.023 12.2096 169.121 11.3026V12.7858C167.787 13.6823 166.187 14.0947 164.587 13.9544C162.986 13.814 161.482 13.1293 160.325 12.0145L160.324 12.0128Z" fill="white"/>
<path d="M179.026 13.7482V1.54105H174.495V0.249758H185V1.54105H180.415V13.7482H179.026Z" fill="white"/>
</svg>