<svg width="1158" height="244" viewBox="0 0 1158 244" fill="none" xmlns="http://www.w3.org/2000/svg">
<rect width="1158" height="244" rx="10" fill="#5C5CB6"/>
<path d="M12.8128 3.16577L1138.27 240.309C1139.86 240.645 1141.32 240.998 1142.64 241.366C1134.19 243.002 1122.92 244 1110.54 244H47.459C21.2481 244 0 239.523 0 234V10C0 7.35714 4.86581 4.95371 12.8128 3.16577Z" fill="#51519F"/>
<g filter="url(#filter0_d_107_4)">
<rect x="33.0285" y="21" width="1091.94" height="179" rx="10" fill="#7373E3"/>
</g>
<path d="M181.041 83.552H153.393V156H132.401V83.552H104.625V65.12H181.041V83.552ZM205.373 65.12L224.957 105.312L244.797 65.12H267.709L235.325 125.024V156H214.461V124.768L182.589 65.12H205.373ZM276.168 156V65.12H314.952C319.304 65.12 323.272 66.016 326.856 67.808C330.525 69.5147 333.683 71.8613 336.328 74.848C338.973 77.7493 341.021 81.0347 342.472 84.704C343.923 88.3733 344.648 92.128 344.648 95.968C344.648 101.173 343.411 106.123 340.936 110.816C338.547 115.509 335.176 119.349 330.824 122.336C326.557 125.237 321.48 126.688 315.592 126.688H297.16V156H276.168ZM297.16 108.384H314.312C315.933 108.384 317.427 107.915 318.792 106.976C320.157 106.037 321.267 104.629 322.12 102.752C322.973 100.875 323.4 98.5707 323.4 95.84C323.4 93.024 322.888 90.72 321.864 88.928C320.925 87.0507 319.688 85.6853 318.152 84.832C316.701 83.9787 315.165 83.552 313.544 83.552H297.16V108.384ZM419.79 137.568V156H355.918V65.12H418.638V83.552H376.91V101.216H412.75V118.24H376.91V137.568H419.79ZM507.679 132.704C507.679 137.909 506.271 142.261 503.455 145.76C500.724 149.173 497.012 151.733 492.319 153.44C487.626 155.147 482.463 156 476.831 156H432.543V65.12H483.103C487.37 65.12 491.039 66.272 494.111 68.576C497.268 70.7947 499.658 73.696 501.279 77.28C502.986 80.864 503.839 84.576 503.839 88.416C503.839 92.6827 502.73 96.7787 500.511 100.704C498.292 104.544 495.05 107.445 490.783 109.408C495.988 110.944 500.084 113.675 503.071 117.6C506.143 121.525 507.679 126.56 507.679 132.704ZM486.303 128.48C486.303 126.517 485.919 124.811 485.151 123.36C484.383 121.824 483.359 120.629 482.079 119.776C480.884 118.837 479.434 118.368 477.727 118.368H453.535V138.208H476.831C478.623 138.208 480.202 137.781 481.567 136.928C483.018 136.075 484.17 134.923 485.023 133.472C485.876 132.021 486.303 130.357 486.303 128.48ZM453.535 83.04V101.856H474.143C475.679 101.856 477.087 101.515 478.367 100.832C479.732 100.149 480.842 99.1253 481.695 97.76C482.548 96.3093 482.975 94.5173 482.975 92.384C482.975 90.336 482.591 88.6293 481.823 87.264C481.14 85.8987 480.202 84.8747 479.007 84.192C477.812 83.424 476.447 83.04 474.911 83.04H453.535ZM559.083 156.768C551.83 156.768 545.643 155.573 540.523 153.184C535.403 150.709 531.222 147.381 527.979 143.2C524.822 138.933 522.475 134.112 520.939 128.736C519.488 123.275 518.763 117.557 518.763 111.584V65.12H539.755V111.584C539.755 114.997 540.096 118.325 540.779 121.568C541.462 124.725 542.571 127.541 544.107 130.016C545.643 132.491 547.606 134.453 549.995 135.904C552.47 137.355 555.499 138.08 559.083 138.08C562.752 138.08 565.824 137.355 568.299 135.904C570.774 134.368 572.736 132.363 574.187 129.888C575.638 127.328 576.704 124.469 577.387 121.312C578.07 118.155 578.411 114.912 578.411 111.584V65.12H599.403V111.584C599.403 117.899 598.592 123.787 596.971 129.248C595.435 134.709 593.046 139.531 589.803 143.712C586.56 147.808 582.379 151.008 577.259 153.312C572.224 155.616 566.166 156.768 559.083 156.768ZM615.668 156V65.12H636.66V156H615.668ZM654.043 156V65.12H675.035V137.568H719.067V156H654.043ZM728.918 156V65.12H762.838C772.822 65.12 781.142 67.168 787.798 71.264C794.539 75.2747 799.617 80.736 803.03 87.648C806.443 94.4747 808.15 102.069 808.15 110.432C808.15 119.648 806.273 127.669 802.518 134.496C798.763 141.323 793.473 146.613 786.646 150.368C779.905 154.123 771.969 156 762.838 156H728.918ZM786.774 110.432C786.774 105.141 785.835 100.491 783.958 96.48C782.081 92.384 779.35 89.2267 775.766 87.008C772.182 84.704 767.873 83.552 762.838 83.552H749.91V137.568H762.838C767.958 137.568 772.267 136.416 775.766 134.112C779.35 131.723 782.081 128.48 783.958 124.384C785.835 120.203 786.774 115.552 786.774 110.432ZM884.415 137.568V156H820.543V65.12H883.263V83.552H841.535V101.216H877.375V118.24H841.535V137.568H884.415ZM897.168 156V65.12H938.128C942.395 65.12 946.32 66.016 949.904 67.808C953.573 69.5147 956.731 71.8613 959.376 74.848C962.021 77.7493 964.069 81.0347 965.52 84.704C967.056 88.3733 967.824 92.0853 967.824 95.84C967.824 99.5947 967.227 103.179 966.032 106.592C964.837 109.92 963.131 112.949 960.912 115.68C958.693 118.325 956.048 120.501 952.976 122.208L972.944 156H949.776L932.368 126.688H918.16V156H897.168ZM918.16 108.384H937.36C939.067 108.384 940.56 107.872 941.84 106.848C943.205 105.739 944.315 104.245 945.168 102.368C946.021 100.491 946.448 98.3147 946.448 95.84C946.448 93.3653 945.936 91.232 944.912 89.44C943.973 87.5627 942.779 86.112 941.328 85.088C939.877 84.064 938.341 83.552 936.72 83.552H918.16V108.384ZM1037.45 91.744C1037.19 91.3173 1036.29 90.6773 1034.76 89.824C1033.22 88.8853 1031.3 87.904 1029 86.88C1026.69 85.856 1024.18 84.96 1021.45 84.192C1018.72 83.424 1015.98 83.04 1013.25 83.04C1009.67 83.04 1006.9 83.68 1004.93 84.96C1002.97 86.1547 1001.99 88.032 1001.99 90.592C1001.99 92.64 1002.72 94.2613 1004.17 95.456C1005.7 96.6507 1007.88 97.7173 1010.69 98.656C1013.51 99.5093 1016.97 100.533 1021.06 101.728C1026.86 103.264 1031.9 105.141 1036.17 107.36C1040.43 109.493 1043.68 112.267 1045.89 115.68C1048.2 119.093 1049.35 123.616 1049.35 129.248C1049.35 134.368 1048.41 138.72 1046.53 142.304C1044.66 145.803 1042.1 148.661 1038.85 150.88C1035.7 153.013 1032.07 154.592 1027.97 155.616C1023.88 156.555 1019.65 157.024 1015.3 157.024C1010.86 157.024 1006.3 156.597 1001.61 155.744C996.998 154.805 992.561 153.525 988.294 151.904C984.027 150.197 980.102 148.149 976.518 145.76L985.734 127.456C986.075 127.883 987.185 128.693 989.062 129.888C990.939 130.997 993.243 132.192 995.974 133.472C998.79 134.667 1001.9 135.733 1005.32 136.672C1008.73 137.611 1012.19 138.08 1015.69 138.08C1019.44 138.08 1022.21 137.483 1024.01 136.288C1025.88 135.093 1026.82 133.429 1026.82 131.296C1026.82 128.992 1025.84 127.2 1023.88 125.92C1022 124.64 1019.4 123.488 1016.07 122.464C1012.83 121.44 1009.07 120.288 1004.81 119.008C999.259 117.301 994.651 115.381 990.982 113.248C987.398 111.115 984.71 108.512 982.918 105.44C981.211 102.368 980.358 98.528 980.358 93.92C980.358 87.52 981.851 82.144 984.838 77.792C987.91 73.3547 992.006 70.0267 997.126 67.808C1002.25 65.504 1007.84 64.352 1013.89 64.352C1018.16 64.352 1022.26 64.864 1026.18 65.888C1030.19 66.912 1033.9 68.192 1037.32 69.728C1040.82 71.264 1043.93 72.8 1046.66 74.336L1037.45 91.744Z" fill="#F4F6FC"/>
<defs>
<filter id="filter0_d_107_4" x="13.0285" y="9" width="1131.94" height="219" filterUnits="userSpaceOnUse" color-interpolation-filters="sRGB">
<feFlood flood-opacity="0" result="BackgroundImageFix"/>
<feColorMatrix in="SourceAlpha" type="matrix" values="0 0 0 0 0 0 0 0 0 0 0 0 0 0 0 0 0 0 127 0" result="hardAlpha"/>
<feOffset dy="8"/>
<feGaussianBlur stdDeviation="10"/>
<feComposite in2="hardAlpha" operator="out"/>
<feColorMatrix type="matrix" values="0 0 0 0 0 0 0 0 0 0 0 0 0 0 0 0 0 0 0.08 0"/>
<feBlend mode="normal" in2="BackgroundImageFix" result="effect1_dropShadow_107_4"/>
<feBlend mode="normal" in="SourceGraphic" in2="effect1_dropShadow_107_4" result="shape"/>
</filter>
</defs>
</svg>
