<?xml version="1.0" encoding="UTF-8"?>
<svg id="Layer_2" data-name="Layer 2" xmlns="http://www.w3.org/2000/svg" viewBox="0 0 1013.18 168.96">
  <defs>
    <style>
      .cls-1 {
        fill: #fff;
      }

      .cls-2 {
        fill: #ed3937;
      }
    </style>
  </defs>
  <g id="Layer_1-2" data-name="Layer 1">
    <path class="cls-1" d="M661.68,0V21.46L640.23,0h-102.73l-23.35,23.35V.01H219.2V6.97L212.24,.01H57.8V74.41H0v94.55H212.24l24.13-24.13,24.13,24.13h102.74l23.36-23.36v23.15l510.31,.2V65.37l13.35,.04v103.55h69.74V65.41l33.19-.09V0h-351.5Z"/>
    <path d="M667.35,5.67v29.48l-29.47-29.47h-98.03l-31.37,31.37V5.68H224.87v14.97l-14.97-14.97H63.47V80.08H5.67v83.21H209.9c8.83-8.83,17.65-17.65,26.48-26.48l26.48,26.48h98.04l31.37-31.37v31.17l498.97,.19V59.68l24.68,.07v103.54h58.4V59.75l33.19-.09V5.67h-340.16Z"/>
    <g>
      <path class="cls-1" d="M400.77,154.78V14.18h41.4v55.4l16.6-16.6V14.18h41.2V61.18l-24.8,24.8,24.8,24.8v44h-41.4v-35.8l-16.6-16.6v52.2h-41.2v.2Z"/>
      <path class="cls-1" d="M266.37,154.78l-33-33V14.18h41.4V105.18l8.2,8.2,8.2-8.2V14.18h41.4V105.38l8.2,8,8.2-8.2V14.18h41.4V121.78l-33,33h-33l-12.4-12.4-12.4,12.4s-33.2,0-33.2,0Z"/>
      <path class="cls-1" d="M123.77,154.78V14.18h82.6l16.6,16.6v41.2l-16.6,16.6,16.6,16.6v33l-16.6,16.6H123.77Zm57.8-82.8v-16.6h-16.6v16.6h16.6Zm0,41.4v-16.6h-16.6v16.6h16.6Z"/>
      <path class="cls-1" d="M14.17,154.78V88.58H55.57v24.8h16.4V14.18h41.4V154.78H14.17Z"/>
    </g>
    <g>
      <path class="cls-2" d="M634.36,14.18l33,33v107.59h-41.39V63.78s-8.2-8.2-8.2-8.2l-8.2,8.2v90.99h-41.39V63.58s-8.2-8-8.2-8l-8.2,8.2v90.99h-41.39V47.18s33-33,33-33h33s12.4,12.4,12.4,12.4l12.4-12.4s33.2,0,33.2,0Z"/>
      <path class="cls-2" d="M675.85,43.73V14.17h99.19s0,37.08,0,37.08h-54.77s0,14.68,0,14.68h54.77s0,37.08,0,37.08h-54.95s.18,14.68,.18,14.68h54.77s0,37.08,0,37.08h-99.19s0-29.55,0-29.55V43.73Z"/>
      <path class="cls-2" d="M783.54,43.73V14.18h99.19s0,37.08,0,37.08h-54.77s0,14.68,0,14.68h54.77s0,37.08,0,37.08h-54.95s.18,14.68,.18,14.68h54.77s0,37.08,0,37.08h-99.19s0-29.55,0-29.55V43.73Z"/>
      <polygon class="cls-2" points="999.01 14.18 891.24 14.18 891.24 51.18 924.43 51.27 924.43 154.78 965.82 154.78 965.82 51.27 999.01 51.18 999.01 14.18"/>
    </g>
  </g>
</svg>